<?xml version="1.0" encoding="UTF-8" standalone="no"?>
<svg
   xmlns:dc="http://purl.org/dc/elements/1.1/"
   xmlns:cc="http://creativecommons.org/ns#"
   xmlns:rdf="http://www.w3.org/1999/02/22-rdf-syntax-ns#"
   xmlns:svg="http://www.w3.org/2000/svg"
   xmlns="http://www.w3.org/2000/svg"
   xmlns:xlink="http://www.w3.org/1999/xlink"
   xmlns:sodipodi="http://sodipodi.sourceforge.net/DTD/sodipodi-0.dtd"
   xmlns:inkscape="http://www.inkscape.org/namespaces/inkscape"
   width="553.73792"
   height="398.9035"
   viewBox="0 0 553.73792 398.9035"
   id="svg2"
   version="1.1"
   inkscape:version="0.48.4 r9939"
   sodipodi:docname="spec2.svg">
  <metadata
     id="metadata130">
    <rdf:RDF>
      <cc:Work
         rdf:about="">
        <dc:format>image/svg+xml</dc:format>
        <dc:type
           rdf:resource="http://purl.org/dc/dcmitype/StillImage" />
        <dc:title>Gnuplot</dc:title>
      </cc:Work>
    </rdf:RDF>
  </metadata>
  <defs
     id="defs128">
    <defs
       id="defs11">
      <circle
         r="0.5"
         id="gpDot"
         cx="0"
         cy="0"
         sodipodi:cx="0"
         sodipodi:cy="0"
         sodipodi:rx="0.5"
         sodipodi:ry="0.5"
         style="stroke-width:0.5" />
      <path
         d="M -1,0 H 1 M 0,-1 v 2"
         id="gpPt0"
         inkscape:connector-curvature="0"
         style="stroke:currentColor;stroke-width:0.222" />
      <path
         d="M -1,-1 1,1 M 1,-1 -1,1"
         id="gpPt1"
         inkscape:connector-curvature="0"
         style="stroke:currentColor;stroke-width:0.222" />
      <path
         d="M -1,0 1,0 M 0,-1 0,1 m -1,-2 2,2 m -2,0 2,-2"
         id="gpPt2"
         inkscape:connector-curvature="0"
         style="stroke:currentColor;stroke-width:0.222" />
      <rect
         height="2"
         width="2"
         y="-1"
         x="-1"
         id="gpPt3"
         style="stroke:currentColor;stroke-width:0.222" />
      <rect
         height="2"
         width="2"
         y="-1"
         x="-1"
         id="gpPt4"
         style="fill:currentColor;stroke:currentColor;stroke-width:0.222" />
      <circle
         r="1"
         cy="0"
         cx="0"
         id="gpPt5"
         sodipodi:cx="0"
         sodipodi:cy="0"
         sodipodi:rx="1"
         sodipodi:ry="1"
         style="stroke:currentColor;stroke-width:0.222" />
      <use
         id="gpPt6"
         xlink:href="#gpPt5"
         style="fill:currentColor;stroke:none"
         x="0"
         y="0"
         width="600"
         height="480" />
      <path
         d="m 0,-1.33 -1.33,2 2.66,0 z"
         id="gpPt7"
         inkscape:connector-curvature="0"
         style="stroke:currentColor;stroke-width:0.222" />
      <use
         id="gpPt8"
         xlink:href="#gpPt7"
         style="fill:currentColor;stroke:none"
         x="0"
         y="0"
         width="600"
         height="480" />
      <use
         transform="scale(-1,-1)"
         id="gpPt9"
         xlink:href="#gpPt7"
         style="stroke:currentColor"
         x="0"
         y="0"
         width="600"
         height="480" />
      <use
         id="gpPt10"
         xlink:href="#gpPt9"
         style="fill:currentColor;stroke:none"
         x="0"
         y="0"
         width="600"
         height="480" />
      <use
         transform="matrix(0.70710678,0.70710678,-0.70710678,0.70710678,0,0)"
         id="gpPt11"
         xlink:href="#gpPt3"
         style="stroke:currentColor"
         x="0"
         y="0"
         width="600"
         height="480" />
      <use
         id="gpPt12"
         xlink:href="#gpPt11"
         style="fill:currentColor;stroke:none"
         x="0"
         y="0"
         width="600"
         height="480" />
    </defs>
  </defs>
  <sodipodi:namedview
     pagecolor="#ffffff"
     bordercolor="#666666"
     borderopacity="1"
     objecttolerance="10"
     gridtolerance="10"
     guidetolerance="10"
     inkscape:pageopacity="0"
     inkscape:pageshadow="2"
     inkscape:window-width="1366"
     inkscape:window-height="719"
     id="namedview126"
     showgrid="false"
     inkscape:zoom="1.3587246"
     inkscape:cx="297.10853"
     inkscape:cy="199.45175"
     inkscape:window-x="0"
     inkscape:window-y="25"
     inkscape:window-maximized="1"
     inkscape:current-layer="svg2"
     fit-margin-top="0"
     fit-margin-left="0"
     fit-margin-right="0"
     fit-margin-bottom="0" />
  <title
     id="title4">Gnuplot</title>
  <desc
     id="desc6">Produced by GNUPLOT 4.6 patchlevel 1 </desc>
  <rect
     style="fill:#ffc0c0;fill-opacity:0.37647059;stroke:none"
     id="rect3999"
     width="314.1911"
     height="354.25925"
     x="143.55002"
     y="0" />
  <rect
     style="fill:none"
     id="rect9"
     height="480"
     width="600"
     y="-68.109283"
     x="-22.730858" />
  <path
     style="color:#000000;fill:none;stroke:currentColor;stroke-width:1;stroke-linecap:butt;stroke-linejoin:miter"
     d="m 49.169142,323.09072 9,0 m 494.099998,0 -9,0 0.01,0"
     id="path31"
     inkscape:connector-curvature="0"
     sodipodi:nodetypes="ccccc" />
  <text
     style="font-size:15px;text-anchor:end;color:#000000;fill:#000000;stroke:none;font-family:Arial"
     id="text35"
     x="40.869141"
     y="327.59073">-6</text>
  <path
     style="color:#000000;fill:none;stroke:currentColor;stroke-width:1;stroke-linecap:butt;stroke-linejoin:miter"
     d="m 49.169142,260.69072 9,0 m 494.099998,0 -9,0 0.01,0"
     id="path37"
     inkscape:connector-curvature="0"
     sodipodi:nodetypes="ccccc" />
  <text
     style="font-size:15px;text-anchor:end;color:#000000;fill:#000000;stroke:none;font-family:Arial"
     id="text41"
     x="40.869141"
     y="265.1907">-5</text>
  <path
     style="color:#000000;fill:none;stroke:currentColor;stroke-width:1;stroke-linecap:butt;stroke-linejoin:miter"
     d="m 552.26914,198.29072 -9,0 0.01,0"
     id="path43"
     inkscape:connector-curvature="0"
     sodipodi:nodetypes="ccc" />
  <text
     style="font-size:15px;text-anchor:end;color:#000000;fill:#000000;stroke:none;font-family:Arial"
     id="text47"
     x="40.869141"
     y="202.79071">-4</text>
  <path
     style="color:#000000;fill:none;stroke:currentColor;stroke-width:1;stroke-linecap:butt;stroke-linejoin:miter"
     d="m 49.169142,135.79072 9,0 m 494.099998,0 -9,0 0.01,0"
     id="path49"
     inkscape:connector-curvature="0"
     sodipodi:nodetypes="ccccc" />
  <text
     style="font-size:15px;text-anchor:end;color:#000000;fill:#000000;stroke:none;font-family:Arial"
     id="text53"
     x="40.869141"
     y="140.29071">-3</text>
  <path
     style="color:#000000;fill:none;stroke:currentColor;stroke-width:1;stroke-linecap:butt;stroke-linejoin:miter"
     d="m 49.169142,73.390717 9,0 m 494.099998,0 -9,0 0.01,0"
     id="path55"
     inkscape:connector-curvature="0"
     sodipodi:nodetypes="ccccc" />
  <text
     style="font-size:15px;text-anchor:end;color:#000000;fill:#000000;stroke:none;font-family:Arial"
     id="text59"
     x="40.869141"
     y="77.890717">-2</text>
  <path
     style="color:#000000;fill:none;stroke:currentColor;stroke-width:1;stroke-linecap:butt;stroke-linejoin:miter"
     d="m 49.169142,10.990717 9,0 m 494.099998,0 -9,0 0.01,0"
     id="path61"
     inkscape:connector-curvature="0"
     sodipodi:nodetypes="ccccc" />
  <text
     style="font-size:15px;text-anchor:end;color:#000000;fill:#000000;stroke:none;font-family:Arial"
     id="text65"
     x="40.869141"
     y="15.490715">-1</text>
  <path
     style="color:#000000;fill:none;stroke:currentColor;stroke-width:1;stroke-linecap:butt;stroke-linejoin:miter"
     d="m 143.66914,354.29072 0,-9"
     id="path73"
     inkscape:connector-curvature="0"
     sodipodi:nodetypes="cc" />
  <text
     style="font-size:15px;text-anchor:middle;color:#000000;fill:#000000;stroke:none;font-family:Arial"
     id="text77"
     x="143.66913"
     y="376.79071">4.74</text>
  <text
     style="font-size:15px;text-anchor:middle;color:#000000;fill:#000000;stroke:none;font-family:Arial"
     id="text83"
     x="300.76913"
     y="376.79071">15</text>
  <path
     style="color:#000000;fill:none;stroke:currentColor;stroke-width:1;stroke-linecap:butt;stroke-linejoin:miter"
     d="m 457.76914,354.29072 0,-9"
     id="path85"
     inkscape:connector-curvature="0"
     sodipodi:nodetypes="cc" />
  <text
     style="font-size:15px;text-anchor:middle;color:#000000;fill:#000000;stroke:none;font-family:Arial"
     id="text89"
     x="457.76913"
     y="376.79071">47.4</text>
  <path
     style="color:#000000;fill:none;stroke:currentColor;stroke-width:1;stroke-linecap:butt;stroke-linejoin:miter"
     d="m 49.169142,10.583335 0,343.707385 503.099998,0 0,-343.707385"
     id="path91"
     inkscape:connector-curvature="0"
     sodipodi:nodetypes="cccc" />
  <text
     style="font-size:15px;text-anchor:middle;color:#000000;fill:#000000;stroke:none;font-family:Arial"
     id="text95"
     transform="matrix(0,-1,1,0,0,0)"
     x="-182.46999"
     y="10.869141">log(normalized throughput) - log(delay)</text>
  <text
     style="font-size:15px;text-anchor:middle;color:#000000;fill:#000000;stroke:none;font-family:Arial"
     id="text99"
     x="300.66913"
     y="395.79071">link speed (megabits/sec)</text>
  <path
     inkscape:connector-curvature="0"
     style="color:#ff0000;fill:none;stroke:#0000a0;stroke-width:3;stroke-linecap:butt;stroke-linejoin:round;stroke-miterlimit:4;stroke-opacity:0.75294118;stroke-dasharray:none"
     id="path106"
     d="m 135.16914,354.29072 1.9,-15.6 0,-2 5.7,-29.5 0,-11.2 5.6,-35.7 0,-6.6 5.7,-2.7 0,-9.5 5.6,-11.3 0,-8.3 5.7,-2.3 0,-8.1 5.6,-27.4 0,-12.7 5.7,5.3 0,-10.9 5.6,11.7 0,-6.3 5.6,2.1 5.7,-3.9 0,-8.7 5.6,23.7 0,-1.3 5.7,9.5 0,-2.5 5.6,-1.3 0,-10.6 5.7,-28.2 0,-8 5.6,-23.9 0,-2.2 5.7,25.4 0,-3.3 5.6,20.6 0,-6.6 5.6,11.6 0,-2.2 5.7,12.6 0,-7.5 5.6,-5.5 0,-2.1 5.7,8 0,-8.9 5.6,9 0,-1 5.7,9.1 0,-8.7 5.6,1.6 5.7,-24.6 0,-6 5.6,-85.500003 0,-8.8 5.7,14.9 5.6,-2.9 0,14.6 5.6,7.5 0,-3.7 5.7,15.8 0,-3.7 5.6,8.7 0,-3.5 5.7,5.5 0,-2.9 5.6,1.6 0,-11.5 5.7,-6 0,-11.8 5.6,-36.5 0,-16.1 5.7,18.6 0,-15.2 5.6,76.3 0,-9.7 5.7,-35.4 0,-10.4 5.6,84.800003 0,-4.5 5.6,4 0,-12 5.7,19 0,-8.8 5.6,0.9 0,-8.3 5.7,6.3 0,-11.8 5.6,4.4 0,-1.6 5.7,-25.900003 0,-1 5.6,3.3 0,-8.5 5.7,-31.1 0,-5 5.6,21.6 0,-3 5.7,-14 0,-28.1 5.6,23.4 0,-4.8 5.6,35.3 0,-4.8 5.7,17.5 0,-3.9 5.6,19.1 0,-6.1 5.7,9.700003 0,-1.3 5.6,40.8 0,-1.5 5.7,23.8 0,-0.2 5.6,-7.3 0,-6.4 5.7,17.9 0,-3.7 5.6,59.4 0,-7.5 5.7,20.6 0,-4.5 5.6,2.2 0,-2.5 5.6,13.3 0,-0.9 5.7,-5.3 0,-0.2 5.6,19.6 0,-1.7 5.7,12.9 0,-0.6 5.6,13.4 0,-2.5 5.7,24.8 0,-0.2 5.6,26.5 0,-1.9 4.9,23.9 0.01,0"
     sodipodi:nodetypes="cccccccccccccccccccccccccccccccccccccccccccccccccccccccccccccccccccccccccccccccccccccccccccccccccccccccccccccccccccccccccccccccccccccccccc" />
  <path
     style="color:#000000;fill:none;stroke:currentColor;stroke-width:1;stroke-linecap:butt;stroke-linejoin:miter"
     d="m 49.169142,10.583335 0,343.707385 503.099998,0"
     id="path124"
     inkscape:connector-curvature="0"
     sodipodi:nodetypes="ccc" />
  <text
     xml:space="preserve"
     style="font-size:40px;font-style:normal;font-weight:normal;text-align:start;line-height:125%;letter-spacing:0px;word-spacing:0px;text-anchor:start;fill:#0000a0;fill-opacity:0.75294118;stroke:none;font-family:Sans"
     x="388.88721"
     y="11.995096"
     id="text4001-2-4"
     sodipodi:linespacing="125%"
     transform="matrix(0.99999248,0.00387836,-0.00387836,0.99999248,0,0)"
     inkscape:transform-center-x="15.055351"
     inkscape:transform-center-y="-69.077491"><tspan
       sodipodi:role="line"
       x="388.88721"
       y="11.995096"
       style="font-size:16px;font-weight:bold;text-align:start;letter-spacing:-1.5px;text-anchor:start;fill:#0000a0;fill-opacity:0.75294118;-inkscape-font-specification:Sans Bold"
       id="tspan4117">RemyCC <tspan
   style="font-style:italic;fill:#0000a0;fill-opacity:0.75294118;-inkscape-font-specification:Sans Bold Italic"
   id="tspan3041">10x</tspan></tspan></text>
  <path
     style="color:#000000;fill:none;stroke:currentColor;stroke-width:1;stroke-linecap:butt;stroke-linejoin:miter"
     d="m 300.90836,354.16989 0,-9.57032"
     id="path73-8"
     inkscape:connector-curvature="0"
     sodipodi:nodetypes="cc" />
  <g
     inkscape:groupmode="layer"
     id="layer1"
     inkscape:label="Exact"
     style="display:none">
    <path
       transform="translate(0,3.4958724e-6)"
       style="color:#008000;fill:none;stroke:#0040ff;stroke-width:3;stroke-linecap:butt;stroke-linejoin:miter;stroke-miterlimit:4;stroke-opacity:0.75294118;stroke-dasharray:none"
       inkscape:connector-curvature="0"
       id="path113"
       d="m 182.26914,354.29072 0,-4.7 4.5,4.7 m 1.1,0 0,-17.9 5.7,-21.6 0,-15.5 5.6,18.7 0,-24.9 5.7,20.3 0,-31.4 5.6,8.7 0,-6.7 5.7,-2.3 0,-7.8 5.6,-5.4 0,-1 5.7,-5 0,-1 5.6,-5 0,-8.6 5.6,-4 0,-10.4 5.7,-0.6 0,-1 5.6,-3.7 0,-1.8 5.7,0 0,-14.9 5.6,-2.8 5.7,5.9 0,-5.7 5.6,-13.5 5.7,-4.6 5.6,-20.5 0,-0.8 5.7,-18.8 0,-9.4 5.6,-17.9 0,-7.7 5.6,-74.000003 0,-17.1 5.7,72.9 0,-6.9 5.6,19.700003 0,-15.400003 5.7,20.500003 0,-1.6 5.6,14 0,-8 5.7,28.7 0,-4.4 5.6,17.8 0,-4.4 5.7,13.9 0,-1.1 5.6,11.8 0,-0.6 5.7,25.2 0,-2.1 5.6,13.7 0,-2.6 5.6,17.1 0,-7.1 5.7,17.6 0,-4.6 5.6,25.9 0,-2.5 5.7,18.1 0,-1 5.6,7 0,-3.5 5.7,-21.7 0,-5.9 5.6,-24.8 0,-0.5 5.7,27.6 0,-1.3 5.6,26.7 0,-1.3 5.7,26.3 0,-0.5 5.6,27.2 0,-1.3 4.5,21.1 0.01,0"
       sodipodi:nodetypes="cccccccccccccccccccccccccccccccccccccccccccccccccccccccccccccccccccccccccccccccccccccc" />
    <text
       xml:space="preserve"
       style="font-size:40px;font-style:normal;font-weight:normal;text-align:start;line-height:125%;letter-spacing:0px;word-spacing:0px;text-anchor:start;fill:#0040ff;fill-opacity:0.75294118;stroke:none;font-family:Sans"
       x="184.12454"
       y="20.258413"
       id="text4001-2"
       sodipodi:linespacing="125%"
       transform="matrix(0.99999247,0.00387836,-0.00387836,0.99999247,0,3.4958724e-6)"><tspan
         sodipodi:role="line"
         x="184.12454"
         y="20.258413"
         style="font-size:16px;font-weight:bold;text-align:start;letter-spacing:-1.5px;text-anchor:start;fill:#0040ff;fill-opacity:0.75294118;-inkscape-font-specification:Sans Bold"
         id="tspan4123">RemyCC <tspan
   style="font-style:italic;fill:#0040ff;fill-opacity:0.75294118;-inkscape-font-specification:Sans Bold Italic"
   id="tspan3048">exact</tspan></tspan></text>
  </g>
  <g
     inkscape:groupmode="layer"
     id="layer2"
     inkscape:label="CubicsfqCoDel"
     style="display:none">
    <path
       transform="translate(0,3.4958724e-6)"
       style="color:#0000ff;fill:none;stroke:#008020;stroke-width:3;stroke-linecap:butt;stroke-linejoin:miter;stroke-miterlimit:4;stroke-opacity:0.75294118;stroke-dasharray:none"
       inkscape:connector-curvature="0"
       id="path120"
       d="m 49.169142,263.29072 3.3,19.4 0,-22.7 5.6,11.5 0,-1.1 5.6,9.5 0,-21.2 5.7,8.7 0,-11.9 5.6,14.6 0,-30.1 5.7,23.6 0,-14.7 5.6,18.4 0,-18.2 5.7,15.2 0,-17.5 5.6,5.8 0,-16.3 5.699998,26 0,-3.2 5.6,-12.5 0,-9.5 5.7,29.3 0,-32.9 5.6,20.1 0,-11.3 5.6,-2.4 0,-1.8 5.7,11.7 0,-2.6 5.6,-13.2 0,-2.5 5.7,18.5 0,-4.8 5.6,1 0,-4.7 5.7,5.4 0,-11.1 5.6,15.8 0,-17.2 5.7,1.4 0,-6.1 5.6,32 0,-16.2 5.7,6.5 0,-13.3 5.6,12.6 0,-14.8 5.6,7.7 0,-8.9 5.7,3.1 0,-3.1 5.6,20.8 0,-21.9 5.7,16.1 0,-14.8 5.6,2.7 0,-1.6 5.7,9.4 0,-7.3 5.6,4.9 0,-1.4 5.7,-7 0,-1.3 5.6,19.1 0,-6.6 5.6,3.9 0,-19 5.7,23.4 0,-14.7 5.6,3.3 0,-10.5 5.7,6.2 0,-6.6 5.6,10.5 0,-4.3 5.7,21.6 0,-20 5.6,8.8 0,-6 5.7,10.9 0,-22 5.6,15.5 0,1 5.7,7.3 0,-16.1 5.6,21.4 0,-27.4 5.6,26.2 0,-17.8 5.7,20.1 0,-22.1 5.6,8 5.7,7.7 0,-4.4 5.6,20 0,-18 5.7,24.4 0,-29.5 5.6,20.9 0,-26.9 5.7,27.2 0,-7.7 5.6,-2.3 0,-3.1 5.7,3.4 0,-7.2 5.6,4.2 0,-11.1 5.6,33 0,-2.7 5.7,9.4 0,-21.2 5.6,17.3 0,-15.2 5.7,10.2 0,-3.9 5.6,16.1 0,-11.1 5.7,7.5 0,-16.9 5.6,13.8 0,-1.3 5.7,12.7 0,-26.6 5.6,23.8 0,-2.9 5.7,1.3 0,-4.3 5.6,11.1 0,-15.7 5.6,5.2 0,-25.7 5.7,44.3 0,-35.6 5.6,32.6 0,-13.2 5.7,15.5 0,-12.4 5.6,18.1 0,-24.1 5.7,16.3 0,2.2 5.6,17.9 0,-9.9 5.7,-13.6 0,-10.4 5.6,23.1 0,-22.4 5.7,21.4 0,-24.5 5.6,19.1 0,-14 5.6,14.7 0,-9 5.7,16.7 0,-8.5 5.6,17.6 0,-13.2 5.7,9.4 0,-7.9 5.6,17.4 0,-10.9 5.7,-0.6 0,-4.7 5.6,16.4 0,-5.4 5.7,4.1 0,-12.6 5.6,15.9 0,-0.9 5.7,17.1 0,-19.9 5.6,13 0,-8.5 5.6,4.4 0,-3.3 3.1,15.1 0.01,0"
       sodipodi:nodetypes="cccccccccccccccccccccccccccccccccccccccccccccccccccccccccccccccccccccccccccccccccccccccccccccccccccccccccccccccccccccccccccccccccccccccccccccccccccccccccccccccccccccccccccccccccccc" />
    <text
       xml:space="preserve"
       style="font-size:40px;font-style:normal;font-weight:normal;line-height:125%;letter-spacing:0px;word-spacing:0px;fill:#008020;fill-opacity:0.75294118;stroke:none;font-family:Sans"
       x="58.019062"
       y="183.57878"
       id="text4001"
       sodipodi:linespacing="125%"
       transform="matrix(0.99999247,0.00387836,-0.00387836,0.99999247,0,3.4958724e-6)"><tspan
         sodipodi:role="line"
         id="tspan4003"
         x="58.019062"
         y="183.57878"
         style="font-size:16px;font-weight:bold;letter-spacing:-1.5px;fill:#008020;fill-opacity:0.75294118;-inkscape-font-specification:Sans Bold">Cubic-</tspan><tspan
         sodipodi:role="line"
         x="58.019062"
         y="203.57878"
         style="font-size:16px;font-weight:bold;letter-spacing:-1.5px;fill:#008020;fill-opacity:0.75294118;-inkscape-font-specification:Sans Bold"
         id="tspan4005">over-</tspan><tspan
         sodipodi:role="line"
         x="58.019062"
         y="223.57878"
         style="font-size:16px;font-weight:bold;letter-spacing:-1.5px;fill:#008020;fill-opacity:0.75294118;-inkscape-font-specification:Sans Bold"
         id="tspan4007">sfqCoDel</tspan></text>
  </g>
</svg>
