<?xml version="1.0" encoding="UTF-8" standalone="no"?>
<svg
   xmlns:dc="http://purl.org/dc/elements/1.1/"
   xmlns:cc="http://creativecommons.org/ns#"
   xmlns:rdf="http://www.w3.org/1999/02/22-rdf-syntax-ns#"
   xmlns:svg="http://www.w3.org/2000/svg"
   xmlns="http://www.w3.org/2000/svg"
   xmlns:xlink="http://www.w3.org/1999/xlink"
   xmlns:sodipodi="http://sodipodi.sourceforge.net/DTD/sodipodi-0.dtd"
   xmlns:inkscape="http://www.inkscape.org/namespaces/inkscape"
   width="600"
   height="491.58807"
   viewBox="0 0 600 491.58808"
   id="svg2"
   version="1.1"
   inkscape:version="0.48.4 r9939"
   sodipodi:docname="newsweep.svg">
  <metadata
     id="metadata143">
    <rdf:RDF>
      <cc:Work
         rdf:about="">
        <dc:format>image/svg+xml</dc:format>
        <dc:type
           rdf:resource="http://purl.org/dc/dcmitype/StillImage" />
      </cc:Work>
    </rdf:RDF>
  </metadata>
  <defs
     id="defs141">
    <defs
       id="defs11">
      <circle
         r="0.5"
         id="gpDot"
         cx="0"
         cy="0"
         sodipodi:cx="0"
         sodipodi:cy="0"
         sodipodi:rx="0.5"
         sodipodi:ry="0.5"
         style="stroke-width:0.5" />
      <path
         d="M -1,0 H 1 M 0,-1 v 2"
         id="gpPt0"
         inkscape:connector-curvature="0"
         style="stroke:currentColor;stroke-width:0.222" />
      <path
         d="M -1,-1 1,1 M 1,-1 -1,1"
         id="gpPt1"
         inkscape:connector-curvature="0"
         style="stroke:currentColor;stroke-width:0.222" />
      <path
         d="M -1,0 1,0 M 0,-1 0,1 m -1,-2 2,2 m -2,0 2,-2"
         id="gpPt2"
         inkscape:connector-curvature="0"
         style="stroke:currentColor;stroke-width:0.222" />
      <rect
         height="2"
         width="2"
         y="-1"
         x="-1"
         id="gpPt3"
         style="stroke:currentColor;stroke-width:0.222" />
      <rect
         height="2"
         width="2"
         y="-1"
         x="-1"
         id="gpPt4"
         style="fill:currentColor;stroke:currentColor;stroke-width:0.222" />
      <circle
         r="1"
         cy="0"
         cx="0"
         id="gpPt5"
         sodipodi:cx="0"
         sodipodi:cy="0"
         sodipodi:rx="1"
         sodipodi:ry="1"
         style="stroke:currentColor;stroke-width:0.222" />
      <use
         id="gpPt6"
         xlink:href="#gpPt5"
         style="fill:currentColor;stroke:none"
         x="0"
         y="0"
         width="600"
         height="480" />
      <path
         d="m 0,-1.33 -1.33,2 2.66,0 z"
         id="gpPt7"
         inkscape:connector-curvature="0"
         style="stroke:currentColor;stroke-width:0.222" />
      <use
         id="gpPt8"
         xlink:href="#gpPt7"
         style="fill:currentColor;stroke:none"
         x="0"
         y="0"
         width="600"
         height="480" />
      <use
         transform="scale(-1,-1)"
         id="gpPt9"
         xlink:href="#gpPt7"
         style="stroke:currentColor"
         x="0"
         y="0"
         width="600"
         height="480" />
      <use
         id="gpPt10"
         xlink:href="#gpPt9"
         style="fill:currentColor;stroke:none"
         x="0"
         y="0"
         width="600"
         height="480" />
      <use
         transform="matrix(0.70710678,0.70710678,-0.70710678,0.70710678,0,0)"
         id="gpPt11"
         xlink:href="#gpPt3"
         style="stroke:currentColor"
         x="0"
         y="0"
         width="600"
         height="480" />
      <use
         id="gpPt12"
         xlink:href="#gpPt11"
         style="fill:currentColor;stroke:none"
         x="0"
         y="0"
         width="600"
         height="480" />
    </defs>
  </defs>
  <sodipodi:namedview
     pagecolor="#ffffff"
     bordercolor="#666666"
     borderopacity="1"
     objecttolerance="10"
     gridtolerance="10"
     guidetolerance="10"
     inkscape:pageopacity="0"
     inkscape:pageshadow="2"
     inkscape:window-width="1366"
     inkscape:window-height="719"
     id="namedview139"
     showgrid="false"
     inkscape:zoom="1.1291667"
     inkscape:cx="182.55962"
     inkscape:cy="253.02487"
     inkscape:window-x="0"
     inkscape:window-y="25"
     inkscape:window-maximized="1"
     inkscape:current-layer="layer2"
     fit-margin-top="0"
     fit-margin-left="0"
     fit-margin-right="0"
     fit-margin-bottom="0" />
  <title
     id="title4">Gnuplot</title>
  <desc
     id="desc6">Produced by GNUPLOT 4.6 patchlevel 1 </desc>
  <rect
     style="fill:none"
     id="rect9"
     height="480"
     width="600"
     y="11.588078"
     x="-4.2198462e-06" />
  <path
     style="color:#000000;fill:none;stroke:currentColor;stroke-width:1;stroke-linecap:butt;stroke-linejoin:miter"
     d="m 71.899995,433.98808 9,0 m 494.100005,0 -9,0 h 0.01"
     id="path31"
     inkscape:connector-curvature="0" />
  <text
     style="font-size:15px;text-anchor:end;color:#000000;fill:#000000;stroke:none;font-family:Arial"
     id="text35"
     x="63.599991"
     y="438.48807">-30</text>
  <path
     style="color:#000000;fill:none;stroke:currentColor;stroke-width:1;stroke-linecap:butt;stroke-linejoin:miter"
     d="m 71.899995,358.88808 9,0 m 494.100005,0 -9,0 h 0.01"
     id="path37"
     inkscape:connector-curvature="0" />
  <text
     style="font-size:15px;text-anchor:end;color:#000000;fill:#000000;stroke:none;font-family:Arial"
     id="text41"
     x="63.599991"
     y="363.38806">-25</text>
  <path
     style="color:#000000;fill:none;stroke:currentColor;stroke-width:1;stroke-linecap:butt;stroke-linejoin:miter"
     d="m 71.899995,283.68808 9,0 m 494.100005,0 -9,0 h 0.01"
     id="path43"
     inkscape:connector-curvature="0" />
  <text
     style="font-size:15px;text-anchor:end;color:#000000;fill:#000000;stroke:none;font-family:Arial"
     id="text47"
     x="63.599991"
     y="288.18808">-20</text>
  <path
     style="color:#000000;fill:none;stroke:currentColor;stroke-width:1;stroke-linecap:butt;stroke-linejoin:miter"
     d="m 71.899995,208.58808 9,0 m 494.100005,0 -9,0 h 0.01"
     id="path49"
     inkscape:connector-curvature="0" />
  <text
     style="font-size:15px;text-anchor:end;color:#000000;fill:#000000;stroke:none;font-family:Arial"
     id="text53"
     x="63.599991"
     y="213.08807">-15</text>
  <path
     style="color:#000000;fill:none;stroke:currentColor;stroke-width:1;stroke-linecap:butt;stroke-linejoin:miter"
     d="m 71.899995,133.48808 9,0 m 494.100005,0 -9,0 h 0.01"
     id="path55"
     inkscape:connector-curvature="0" />
  <text
     style="font-size:15px;text-anchor:end;color:#000000;fill:#000000;stroke:none;font-family:Arial"
     id="text59"
     x="63.599991"
     y="137.98807">-10</text>
  <path
     style="color:#000000;fill:none;stroke:currentColor;stroke-width:1;stroke-linecap:butt;stroke-linejoin:miter"
     d="m 71.899995,58.388077 9,0 m 494.100005,0 -9,0 h 0.01"
     id="path61"
     inkscape:connector-curvature="0" />
  <text
     style="font-size:15px;text-anchor:end;color:#000000;fill:#000000;stroke:none;font-family:Arial"
     id="text65"
     x="63.599991"
     y="62.888073">-5</text>
  <path
     style="color:#000000;fill:none;stroke:currentColor;stroke-width:1;stroke-linecap:butt;stroke-linejoin:miter"
     d="m 71.899995,433.98808 0,-9 m 0,-396.700003 0,9 h 0.01"
     id="path67"
     inkscape:connector-curvature="0" />
  <text
     style="font-size:15px;text-anchor:middle;color:#000000;fill:#000000;stroke:none;font-family:Arial"
     id="text71"
     x="71.900002"
     y="456.48807">1.5</text>
  <path
     style="color:#000000;fill:none;stroke:currentColor;stroke-width:1;stroke-linecap:butt;stroke-linejoin:miter"
     d="m 196.7,433.98808 0,-9"
     id="path73"
     inkscape:connector-curvature="0"
     sodipodi:nodetypes="cc" />
  <text
     style="font-size:15px;text-anchor:middle;color:#000000;fill:#000000;stroke:none;font-family:Arial"
     id="text77"
     x="196.7"
     y="456.48807">4.7</text>
  <path
     style="color:#000000;fill:none;stroke:currentColor;stroke-width:1;stroke-linecap:butt;stroke-linejoin:miter"
     d="m 323.5,433.98808 0,-9"
     id="path79"
     inkscape:connector-curvature="0"
     sodipodi:nodetypes="cc" />
  <text
     style="font-size:15px;text-anchor:middle;color:#000000;fill:#000000;stroke:none;font-family:Arial"
     id="text83"
     x="323.5"
     y="456.48807">15</text>
  <path
     style="color:#000000;fill:none;stroke:currentColor;stroke-width:1;stroke-linecap:butt;stroke-linejoin:miter"
     d="m 448.2,433.98808 0,-9"
     id="path85"
     inkscape:connector-curvature="0"
     sodipodi:nodetypes="cc" />
  <text
     style="font-size:15px;text-anchor:middle;color:#000000;fill:#000000;stroke:none;font-family:Arial"
     id="text89"
     x="448.20001"
     y="456.48807">47</text>
  <path
     style="color:#000000;fill:none;stroke:currentColor;stroke-width:1;stroke-linecap:butt;stroke-linejoin:miter"
     d="m 575,433.98808 0,-9 m 0,-396.700003 0,9 h 0.01"
     id="path91"
     inkscape:connector-curvature="0" />
  <text
     style="font-size:15px;text-anchor:middle;color:#000000;fill:#000000;stroke:none;font-family:Arial"
     id="text95"
     x="575"
     y="456.48807">150</text>
  <path
     style="color:#000000;fill:none;stroke:currentColor;stroke-width:1;stroke-linecap:butt;stroke-linejoin:miter"
     d="m 71.899995,28.288077 0,405.700003 503.100005,0 0,-405.700003"
     id="path97"
     inkscape:connector-curvature="0"
     sodipodi:nodetypes="cccc" />
  <text
     style="font-size:15px;text-anchor:middle;color:#000000;fill:#000000;stroke:none;font-family:Arial"
     id="text101"
     transform="matrix(0,-1,1,0,0,0)"
     x="-231.18808"
     y="17.599997">log(relative throughput / delay)</text>
  <text
     style="font-size:15px;text-anchor:middle;color:#000000;fill:#000000;stroke:none;font-family:Arial"
     id="text105"
     x="323.39999"
     y="483.48807">link speed (Mbps)</text>
  <path
     style="color:#000000;fill:none;stroke:currentColor;stroke-width:1;stroke-linecap:butt;stroke-linejoin:miter"
     d="m 71.899995,433.98808 503.100005,0"
     id="path137"
     inkscape:connector-curvature="0"
     sodipodi:nodetypes="cc" />
  <rect
     style="fill:#204020;fill-opacity:0.18823529;stroke:none"
     id="rect4026"
     width="251.36259"
     height="433.77844"
     x="196.68031"
     y="0" />
  <g
     inkscape:groupmode="layer"
     id="layer1"
     inkscape:label="Cubic"
     style="display:inline">
    <path
       transform="translate(3.8260882e-6,0)"
       style="color:#0000ff;fill:none;stroke:#ff0000;stroke-width:3;stroke-linecap:butt;stroke-linejoin:miter;stroke-miterlimit:4;stroke-opacity:0.75294118;stroke-dasharray:none"
       inkscape:connector-curvature="0"
       id="path126"
       d="m 97.299995,433.98808 0,-18.1 1.2,18.1 m 26.000005,0 0,-29 1.6,29 m 2.9,0 0,-37.5 3.1,37.5 m 1.4,0 0,-12.2 3,12.2 m 1.5,0 0,-5.4 0.9,5.4 m 3.7,0 0,-45.7 4.5,38.7 0,-4.9 1,11.9 m 3.5,0 0,-61.7 4.5,57.9 0,-39.8 3.2,43.6 m 1.4,0 0,-61.2 4.5,58.6 0,-49.9 4.5,24.8 0,-13.1 4.5,17.6 0,-34.6 4.5,16.8 0,-3.7 4.6,20.5 0,-33.2 4.5,27.8 0,-41.8 4.5,40.6 0,-58.6 4.5,49.7 0,-29.9 4.6,27.1 0,-43.7 4.5,47.3 0,-45.6 4.5,62.7 0,-77.5 4.5,69 0,-69.8 4.5,61.8 0,-61.3 4.6,19.6 0,2.1 4.5,33.2 0,-60.6 4.5,25.3 0,-8.8 4.5,12.1 0,-32.1 4.6,22 0,-12.1 4.5,11.6 0,-8.7 4.5,1 0,0.8 4.5,3 0,-19.5 4.5,4.2 0,-1.5 4.6,17.9 0,-29.1 4.5,12.9 0,-2.5 4.5,0.2 0,-13.4 4.5,10.8 0,-15.3 4.6,30.1 0,-45.3 4.5,25 0,-8.9 4.5,-0.8 0,-5.6 4.5,11.3 0,-20.7 4.5,13.5 0,-11.4 4.6,14.5 0,-31.6 4.5,15.6 0,-1.2 4.5,13.4 0,-22.4 4.5,8.7 0,-10.4 4.5,12.2 0,-13.4 4.6,14.6 0,-30.2 4.5,19.3 0,-13.2 4.5,15.4 0,-18.8 4.5,20.6 0,-31.8 4.6,6.9 0,0.8 4.5,0.8 0,-5.9 4.5,6.4 0,-7.4 4.5,-10.3 0,27.9 4.5,-27 0,17 4.6,-16.2 0,0.5 4.5,-0.1 0,-7 4.5,9.8 0,-12.8 4.5,22.4 0,-35.8 4.6,19.2 0,-13.7 4.5,11.4 0,-12.5 4.5,7.1 0,-4.1 4.5,6 0,-23.7 4.5,26.2 0,-31.8 4.6,14.4 0,-9.8 4.5,12.1 0,-10.6 4.5,0.9 0,-5.5 4.5,-2.3 0,-2.6 4.6,1.9 0,-9.1 4.5,15.4 0,-17 4.5,16.8 0,-21.1 4.5,18.5 0,-26.4 4.5,19.3 0,-16.4 4.6,4.2 0,-5.5 4.5,0.3 0,-1.3 4.5,-4 0,-2.2 4.5,9 0,-11.1 4.4,10.4 0,-20.4 4,17.9 0,-27.7 4,22.8 0,-23.2 3.9,86.2 0,-123.7 4,57.5 0,-16 3.9,7.2 0,-27.2 4,58.3 0,-47.2 4,4.9 0,-7.4 3.9,48 0,-88.3 4,44.1 0,-11 3.9,-1.6 0,-9.9 4,39.5 0,-52 4,40.2 0,-35 3.9,26.5 0,-16.4 4,16.5 0,-23.7 4,28.1 0,-34.9 3.9,17.1 0,-9 4,13 0,-18.9 3.9,23.8 0,-22.6 4,16.1 0,-14.1 4,-0.6 0,-0.4 3.9,17.2 0,-18.2 4,24.4 0,-44.2 4,47.8 0,-42.4 h 0.01" />
    <text
       xml:space="preserve"
       style="font-size:40px;font-style:normal;font-variant:normal;font-weight:normal;font-stretch:normal;line-height:125%;letter-spacing:0px;word-spacing:0px;fill:#ff0000;fill-opacity:0.75294118;stroke:none;font-family:FreeSans;-inkscape-font-specification:FreeSans"
       x="66.219727"
       y="390.77533"
       id="text4033"
       sodipodi:linespacing="125%"
       transform="matrix(0.82584559,-0.56389629,0.56389629,0.82584559,3.8260882e-6,0)"><tspan
         sodipodi:role="line"
         id="tspan4035"
         x="66.219727"
         y="390.77533"
         style="font-size:20px;font-weight:600;-inkscape-font-specification:FreeSans Semi-Bold">Cubic</tspan></text>
  </g>
  <g
     inkscape:groupmode="layer"
     id="layer2"
     inkscape:label="Cubic sfqCoDel"
     style="display:inline">
    <path
       transform="translate(3.8260882e-6,0)"
       style="color:#00ffff;fill:none;stroke:#00c000;stroke-width:3;stroke-linecap:butt;stroke-linejoin:miter;stroke-miterlimit:4;stroke-opacity:0.75294118;stroke-dasharray:none"
       inkscape:connector-curvature="0"
       id="path133"
       d="m 71.899995,112.18808 2.8,-0.7 0,-0.9 4.6,8.6 0,-5.5 4.5,1.6 0,-3.9 4.5,3.1 0,-5.2 4.5,1.9 0,0.7 4.5,1.9 0,-4.9 4.600005,4.1 0,-7.4 4.5,4.2 0,-1.3 4.5,5.5 0,-11.9 4.5,11.5 0,-14.500002 4.6,12.300002 0,-11 4.5,8.1 0,-5.5 4.5,2.8 0,-0.3 4.5,2.3 0,-5.1 4.5,2.1 0,-2.9 4.6,3.5 0,-7.200002 4.5,5.700002 0,-3.6 4.5,4.5 0,-4.4 4.5,3.7 0,-4.300002 4.6,1.400002 0,-3.900002 4.5,6.300002 0,-0.8 4.5,-3.000002 0,-2.3 4.5,7.100002 0,-8.000002 4.5,4.900002 0,-2.800002 4.6,-0.5 0,-0.5 4.5,2.900002 0,-0.700002 4.5,-3.1 0,-0.6 4.5,4.400002 0,-1.100002 4.6,0.2 0,-1.1 4.5,1.3 0,-2.7 4.5,3.800002 0,-4.200002 4.5,0.4 0,-1.5 4.5,7.700002 0,-3.900002 4.6,1.600002 0,-3.200002 4.5,3.000002 0,-3.500002 4.5,1.8 0,-2.1 4.5,0.7 0,-0.7 4.6,5.000002 0,-5.300002 4.5,3.900002 0,-3.600002 4.5,0.7 0,-0.4 4.5,2.3 0,-1.8 4.5,1.2 0,-0.4 4.6,-1.7 0,-0.3 4.5,4.600002 0,-1.600002 4.5,1.000002 0,-4.600002 4.5,5.600002 0,-3.500002 4.6,0.8 0,-2.5 4.5,1.5 0,-1.6 4.5,2.5 0,-1 4.5,5.200002 0,-4.800002 4.5,2.100002 0,-1.500002 4.6,2.600002 0,-5.200002 4.5,3.7 0,0.200002 4.5,1.8 0,-3.900002 4.5,5.200002 0,-6.600002 4.5,6.300002 0,-4.300002 4.6,4.800002 0,-5.300002 4.5,1.900002 4.5,1.9 0,-1.1 4.5,4.8 0,-4.3 4.6,5.9 0,-7.1 4.5,5 0,-6.500002 4.5,6.600002 0,-1.9 4.5,-0.5 0,-0.8 4.5,0.8 0,-1.7 4.6,1 0,-2.700002 4.5,8.000002 0,-0.7 4.5,2.3 0,-5.1 4.5,4.2 0,-3.7 4.6,2.5 0,-1 4.5,3.9 0,-2.7 4.5,1.8 0,-4 4.5,3.3 0,-0.3 4.5,3 0,-6.4 4.6,5.8 0,-0.7 4.5,0.3 0,-1.1 4.5,2.7 0,-3.8 4.5,1.3 0,-6.2 4.6,10.7 0,-8.6 4.5,7.8 0,-3.1 4.5,3.7 0,-3 4.5,4.4 0,-5.9 4.5,4 0,0.5 4.6,4.3 0,-2.4 4.5,-3.2 0,-2.5 4.5,5.5 0,-5.4 4.5,5.2 0,-5.9 4.6,4.6 0,-3.4 4.5,3.6 0,-2.2 4.5,4 0,-2.1 4.5,4.3 0,-3.2 4.5,2.3 0,-1.9 4.6,4.2 0,-2.7 4.5,-0.1 0,-1.1 4.5,3.9 0,-1.3 4.5,1 0,-3 4.6,3.8 0,-0.2 4.5,4.1 0,-4.8 4.5,3.1 0,-2 4.5,1.1 0,-0.8 4.5,6.7 0,-6 4.6,6.1 0,-5.3 4.5,6.6 0,-10.8 4.5,9.2 0,-3.5 4.5,1.1 0,-4.4 4.6,8.7 0,-5.7 4.5,7.5 0,-6.3 4.5,2.8 0,-0.1 4.5,0.8 0,-1.5 4.5,0.9 0,-1.5 4.6,7.1 0,-3.4 2.8,0.7 h 0.01" />
    <text
       transform="translate(3.8260882e-6,0)"
       xml:space="preserve"
       style="font-size:40px;font-style:normal;font-variant:normal;font-weight:normal;font-stretch:normal;line-height:125%;letter-spacing:0px;word-spacing:0px;fill:#008000;fill-opacity:0.75294118;stroke:none;font-family:FreeSans;-inkscape-font-specification:FreeSans"
       x="83.247231"
       y="63.838993"
       id="text4037"
       sodipodi:linespacing="125%"><tspan
         sodipodi:role="line"
         x="83.247231"
         y="63.838993"
         id="tspan4041"
         style="font-size:20px;font-weight:600;fill:#008000;fill-opacity:0.75294118;-inkscape-font-specification:FreeSans Semi-Bold">Cubic over</tspan><tspan
         sodipodi:role="line"
         x="83.247231"
         y="88.838989"
         id="tspan4043"
         style="font-size:20px;font-weight:600;fill:#008000;fill-opacity:0.75294118;-inkscape-font-specification:FreeSans Semi-Bold">sfqCoDel</tspan></text>
  </g>
  <g
     inkscape:groupmode="layer"
     id="layer3"
     inkscape:label="RemyCC 1x"
     style="display:inline">
    <path
       transform="translate(3.8260882e-6,0)"
       inkscape:connector-curvature="0"
       style="color:#ff0000;fill:none;stroke:#0000ff;stroke-width:2.5;stroke-linecap:butt;stroke-linejoin:miter;stroke-miterlimit:4;stroke-opacity:0.75294118;stroke-dasharray:none"
       id="path112"
       d="m 71.899995,334.68808 2.8,-1.9 0,-6.1 4.6,-1.2 0,-2.3 4.5,-12.8 0,-2.5 4.5,6.3 0,-4.6 4.5,-7.9 0,-1.6 4.5,-7.1 0,-2.5 4.600005,4.4 0,-0.4 4.5,-8.9 0,-6.8 4.5,-2.6 0,-4.5 4.5,-3.8 0,-1.4 4.6,-1.1 0,-4.1 4.5,-5.1 0,-3.9 4.5,2.7 0,-1.9 4.5,-12.5 0,0.2 4.5,-3.8 0,-2.1 4.6,-7.5 0,-0.7 4.5,1.6 0,-1.2 4.5,-5 0,-0.6 4.5,-3.3 0,-0.1 4.6,-8.5 0,0.6 4.5,-8.1 0,0.6 4.5,2.3 0,0.6 4.5,-5.4 0,-2.9 4.5,-4.1 0,-0.8 4.6,-5.9 0,-1.2 4.5,-2.4 0,-3.2 4.5,-6.2 0,-0.8 4.5,3.3 0,-2.8 4.6,-3.9 4.5,-9.9 0,-2.9 4.5,0.6 0,-0.8 4.5,-7.1 0,-1.7 4.5,-3.9 0,0.9 4.6,-3.3 4.5,-13 0,-3.6 4.5,1.4 0,-4.6 4.5,-5.2 0,-3.7 4.6,4.5 0,-6 4.5,4.9 0,-7.6 4.5,2.1 0,-1.6 4.5,-0.6 0,-1.8 4.5,-1.3 0,-0.3 4.6,-1.2 0,-0.2 4.5,-1.2 0,-2.1 4.5,-1.000002 0,-2.5 4.5,-0.1 0,-0.2 4.6,-0.9 0,-0.5 4.5,0 0,-3.600001 4.5,-0.6 4.5,1.4 0,-1.4 4.5,-3.2 4.6,-1.1 4.5,-5 0,-0.2 4.5,-4.5 0,-2.3 4.5,-4.3 0,-1.8 4.5,-17.8 0,-4.2 4.6,17.6 0,-1.7 4.5,4.8 0,-3.7 4.5,4.9 0,-0.4 4.5,3.4 0,-1.9 4.6,6.9 0,-1.1 4.5,4.3 0,-1.1 4.5,3.4 0,-0.3 4.5,2.8 0,-0.1 4.5,6.1 0,-0.5 4.6,3.3 0,-0.7 4.5,4.200001 0,-1.7 4.5,4.2 0,-1.1 4.5,6.200002 0,-0.6 4.6,4.4 0,-0.3 4.5,1.7 0,-0.8 4.5,-5.2 0,-1.5 4.5,-5.900002 0,-0.1 4.5,6.600002 0,-0.3 4.6,6.4 0,-0.3 4.5,6.3 0,-0.1 4.5,6.5 0,-0.3 4.5,6.4 4.6,6.3 0,-0.2 4.5,6.3 0,-0.1 4.5,6.5 0,-0.4 4.5,6.4 0,-0.1 4.5,6.2 0,-0.1 4.6,6.6 0,-0.2 4.5,6.4 0,-0.1 4.5,6.2 0,-0.1 4.5,6.3 4.6,6.3 4.5,6.2 0,-0.1 4.5,6.4 0,-0.2 4.5,6.3 0,-0.3 4.5,6.5 0,-0.1 4.6,6.5 0,-0.3 4.5,6.5 4.5,6.1 4.5,6.2 4.6,6.2 0,-0.1 4.5,6.5 0,-0.4 4.5,6.5 0,-0.2 4.5,6.3 0,-0.1 4.5,6.5 0,-0.2 4.6,6.4 0,-0.1 4.5,6.2 4.5,6.3 4.5,6.3 0,-0.2 4.6,6.2 0,-0.1 4.5,6.5 0,-0.1 4.5,6.2 0,-0.1 4.5,6.5 0,-0.2 4.5,6.4 0,-0.3 4.6,6.4 0,-0.2 2.8,4.2 h 0.01" />
    <text
       transform="translate(3.8260882e-6,0)"
       xml:space="preserve"
       style="font-size:40px;font-style:normal;font-variant:normal;font-weight:normal;font-stretch:normal;line-height:125%;letter-spacing:0px;word-spacing:0px;fill:#0000ff;fill-opacity:0.75294118;stroke:none;font-family:FreeSans;-inkscape-font-specification:FreeSans"
       x="202.59679"
       y="18.487818"
       id="text4068-3"
       sodipodi:linespacing="125%"><tspan
         sodipodi:role="line"
         x="202.59679"
         y="18.487818"
         id="tspan4072-7"
         style="font-size:20px;font-style:normal;font-weight:600;fill:#0000ff;fill-opacity:0.75294118;-inkscape-font-specification:FreeSans Semi-Bold">RemyCC for</tspan><tspan
         sodipodi:role="line"
         x="202.59679"
         y="43.487816"
         id="tspan4074-7"
         style="font-size:20px;font-style:normal;font-weight:600;fill:#0000ff;fill-opacity:0.75294118;-inkscape-font-specification:FreeSans Semi-Bold">exact speed</tspan></text>
  </g>
  <g
     inkscape:groupmode="layer"
     id="layer4"
     inkscape:label="RemyCC 10x"
     style="display:inline">
    <path
       transform="translate(3.8260882e-6,0)"
       style="color:#008000;fill:none;stroke:#000060;stroke-width:2.5;stroke-linecap:butt;stroke-linejoin:miter;stroke-miterlimit:4;stroke-opacity:0.75294118;stroke-dasharray:none"
       inkscape:connector-curvature="0"
       id="path119"
       d="m 71.899995,386.28808 2.8,-3.7 0,-3.8 4.6,-3 0,3.5 4.5,-8 0,0.4 4.5,-10.4 0,-2.7 4.5,-6.8 0,-0.5 4.5,-12.8 0,-1.9 4.600005,-0.8 0,-5.6 4.5,-14.4 0,-3.5 4.5,-6.2 0,-0.8 4.5,-17.7 0,1 4.6,-6.9 0,-6.9 4.5,-0.9 0,-11.1 4.5,-11.2 0,-7.5 4.5,-4.3 0,-3.4 4.5,-4.2 0,-4.5 4.6,-3.6 0,-2.1 4.5,-9.4 0,-2.1 4.5,0.5 0,-1.5 4.5,1.8 0,-4 4.6,-12 0,0.7 4.5,2.6 0,-3.8 4.5,-1.8 0,-2.6 4.5,-7 4.5,-2.1 0,-6.8 4.6,-12.8 0,-6 4.5,-20.2 0,-2.6 4.5,-10.9 0,-0.5 4.5,-7.1 0,-2.7 4.6,-8.6 0,-1.6 4.5,-0.6 0,-2.300002 4.5,-2.8 0,-2.000001 4.5,-0.5 0,-2 4.5,-6.6 0,-3 4.6,1.3 0,-2.7 4.5,2.9 0,-1.6 4.5,0.5 4.5,-0.9 0,-2.1 4.6,5.7 0,-0.3 4.5,2.3 0,-0.6 4.5,-0.3 0,-2.6 4.5,-6.8 0,-1.9 4.5,-5.8 0,-0.5 4.6,6.1 0,-0.8 4.5,5 0,-1.6 4.5,2.8 0,-0.5 4.5,3 0,-1.8 4.6,-1.3 0,-0.5 4.5,1.9 0,-2.1 4.5,2.1 0,-0.2 4.5,2.2 0,-2.1 4.5,0.4 4.6,-6 0,-1.4 4.5,-20.6 0,-2.1 4.5,3.6 4.5,-0.7 0,3.5 4.5,1.8 0,-0.9 4.6,3.8 0,-0.9 4.5,2.1 0,-0.8 4.5,1.3 0,-0.7 4.5,0.4 0,-2.8 4.6,-1.4 0,-2.9 4.5,-8.7 0,-3.9 4.5,4.4 0,-3.6 4.5,18.4 0,-2.4 4.5,-8.5 0,-2.5 4.6,20.4 0,-1.1 4.5,1 0,-2.9 4.5,4.6 0,-2.1 4.5,0.2 0,-2 4.6,1.5 0,-2.9 4.5,1.1 0,-0.4 4.5,-6.2 0,-0.3 4.5,0.9 0,-2.1 4.5,-7.5 0,-1.2 4.6,5.2 0,-0.7 4.5,-3.4 0,-6.7 4.5,5.6 0,-1.2 4.5,8.5 0,-1.1 4.6,4.2 0,-0.9 4.5,4.6 0,-1.5 4.5,2.3 0,-0.3 4.5,9.8 0,-0.3 4.5,5.7 0,-0.1 4.6,-1.7 0,-1.6 4.5,4.4 0,-0.9 4.5,14.300001 0,-1.800001 4.5,4.900001 0,-1.1 4.6,0.6 0,-0.6 4.5,3.2 0,-0.3 4.5,-1.2 0,-0.1 4.5,4.700002 0,-0.4 4.5,3.1 0,-0.1 4.6,3.2 0,-0.6 4.5,6 0,-0.1 4.5,6.4 0,-0.4 4.5,6.7 4.6,5.2 0,-0.4 4.5,6.1 0,-0.6 4.5,5.9 0,-0.1 4.5,5.7 0,-0.1 4.5,6.1 4.6,6.6 0,-0.5 4.5,6.6 0,-0.5 4.5,6.2 4.5,6.5 0,-0.3 4.6,14.1 0,-0.3 4.5,6.1 0,-0.3 4.5,6.5 0,-0.4 4.5,6 0,-0.1 4.5,6.1 0,-0.1 4.6,6.2 0,-0.2 2.8,3 h 0.01" />
    <text
       transform="translate(3.8260882e-6,0)"
       xml:space="preserve"
       style="font-size:40px;font-style:normal;font-variant:normal;font-weight:normal;font-stretch:normal;line-height:125%;letter-spacing:0px;word-spacing:0px;fill:#000060;fill-opacity:0.75294118;stroke:none;font-family:FreeSans;-inkscape-font-specification:FreeSans"
       x="450.7749"
       y="46.126831"
       id="text4068"
       sodipodi:linespacing="125%"><tspan
         sodipodi:role="line"
         x="450.7749"
         y="46.126831"
         id="tspan4072"
         style="font-size:20px;font-style:normal;font-weight:600;fill:#000060;fill-opacity:0.75294118;-inkscape-font-specification:FreeSans Semi-Bold">RemyCC for</tspan><tspan
         sodipodi:role="line"
         x="450.7749"
         y="71.126831"
         id="tspan4074"
         style="font-size:20px;font-style:normal;font-weight:600;fill:#000060;fill-opacity:0.75294118;-inkscape-font-specification:FreeSans Semi-Bold">10x range</tspan></text>
  </g>
</svg>
